# File created by Blade
# Date/Time:  Wed Jan 21 15:23:43 2015
# Frame Rate: 120.000 fps
#------------------------------------------------------
:FULLY-SPECIFIED
:DEGREES
609
root 13.489549 30.067872 -17.552423 -164.580000 1.422698 -187.597595
Spine 4.082226 2.168904 -6.971790
Head -11.953100 -4.241168 2.799356
LeftShoulder -6.653358 -24.022079 -2.297755
LeftArm -19.282580 39.475852 -81.703116
LeftForeArm 38.217100 -0.000000 54.699602
LeftHand -0.788885 -0.000000 -6.972617
LeftHandThumb1 -26.253704 0.000000 33.147579
RightShoulder -3.293350 -11.230164 4.509557
RightArm 16.290632 -27.666914 62.431763
RightForeArm -29.509547 -0.000000 32.781854
RightHand 1.626597 -0.000000 10.298910
RightHandThumb1 -24.326973 -0.000000 -32.862282
LeftUpLeg -48.935042 19.588610 -10.442281
LeftLeg 61.723386 -0.000000 -0.000000
LeftFoot -46.160168 12.553454 -13.308769
LeftToeBase 29.099796 -0.000000 -0.000000
RightUpLeg -18.572809 -38.648744 -28.520144
RightLeg -5.092928 -0.000000 0.000000
RightFoot 3.451270 -23.619491 20.075235
RightToeBase 31.399991 -0.000000 -0.000000
610
root 13.345714 29.973873 -17.519709 -164.441412 1.533853 -187.870553
Spine 4.167239 2.151613 -7.236960
Head -12.009400 -4.260163 2.704042
LeftShoulder -6.629266 -24.023173 -2.311292
LeftArm -19.259632 39.605770 -81.520882
LeftForeArm 38.675761 -0.000000 55.260262
LeftHand -0.818601 -0.000000 -7.146803
LeftHandThumb1 -26.253704 0.000000 33.147579
RightShoulder -3.299147 -11.232410 4.476350
RightArm 16.315060 -27.807567 62.316572
RightForeArm -29.632512 -0.000000 32.979817
RightHand 1.662271 -0.000000 10.191636
RightHandThumb1 -24.326973 -0.000000 -32.862282
LeftUpLeg -49.408782 19.444454 -11.023515
LeftLeg 62.286283 -0.000000 -0.000000
LeftFoot -46.515254 12.685779 -13.227557
LeftToeBase 29.224370 -0.000000 -0.000000
RightUpLeg -18.749899 -38.641611 -29.039913
RightLeg -5.071872 -0.000000 0.000000
RightFoot 3.498497 -23.612875 20.129838
RightToeBase 31.451538 -0.000000 -0.000000
611
root 13.199425 29.879106 -17.485696 -164.305059 1.663590 -188.124463
Spine 4.260925 2.150534 -7.455620
Head -12.079870 -4.284488 2.554280
LeftShoulder -6.695346 -24.000747 -2.350491
LeftArm -19.126640 39.883552 -81.278457
LeftForeArm 39.030187 -0.000000 55.822049
LeftHand -0.882113 0.000000 -7.225412
LeftHandThumb1 -26.253704 0.000000 33.147579
RightShoulder -3.263446 -11.259568 4.423092
RightArm 16.340864 -27.862466 62.179175
RightForeArm -29.776300 -0.000000 33.179190
RightHand 1.717726 -0.000000 10.103723
RightHandThumb1 -24.326973 -0.000000 -32.862282
LeftUpLeg -49.895323 19.332272 -11.613414
LeftLeg 62.857580 -0.000000 -0.000000
LeftFoot -46.833166 12.761672 -13.235869
LeftToeBase 29.002878 -0.000000 -0.000000
RightUpLeg -18.961977 -38.657994 -29.522760
RightLeg -5.043458 -0.000000 0.000000
RightFoot 3.582400 -23.568544 20.175780
RightToeBase 31.631815 -0.000000 -0.000000
612
root 13.061589 29.783805 -17.453202 -164.196874 1.731563 -188.321400
Spine 4.385303 2.127253 -7.586298
Head -12.134709 -4.287564 2.384198
LeftShoulder -6.691491 -24.018057 -2.374957
LeftArm -19.045083 40.090670 -81.115055
LeftForeArm 39.369334 0.000000 56.276162
LeftHand -0.871544 0.000000 -7.333787
LeftHandThumb1 -26.253704 0.000000 33.147579
RightShoulder -3.230775 -11.251657 4.355382
RightArm 16.329222 -27.927303 62.062219
RightForeArm -29.901462 -0.000000 33.358223
RightHand 1.850991 -0.000000 10.025452
RightHandThumb1 -24.326973 -0.000000 -32.862282
LeftUpLeg -50.357368 19.184465 -12.103740
LeftLeg 63.450727 -0.000000 -0.000000
LeftFoot -47.156927 12.815048 -13.244669
LeftToeBase 28.878629 -0.000000 -0.000000
RightUpLeg -19.114264 -38.733992 -29.943039
RightLeg -5.010517 -0.000000 0.000000
RightFoot 3.649253 -23.489052 20.237410
RightToeBase 31.648542 -0.000000 -0.000000
613
root 12.924444 29.690340 -17.420563 -164.063737 1.869088 -188.546093
Spine 4.476317 2.159734 -7.792530
Head -12.210206 -4.262183 2.264215
LeftShoulder -6.681436 -24.007766 -2.396512
LeftArm -18.925675 40.265425 -80.917604
LeftForeArm 39.745090 -0.000000 56.717974
LeftHand -0.832811 -0.000000 -7.373808
LeftHandThumb1 -26.253704 0.000000 33.147579
RightShoulder -3.242092 -11.254825 4.321729
RightArm 16.418681 -28.018490 61.921058
RightForeArm -29.968829 -0.000000 33.413932
RightHand 1.897191 -0.000000 9.806078
RightHandThumb1 -24.326973 -0.000000 -32.862282
LeftUpLeg -50.833777 19.068859 -12.647497
LeftLeg 64.008592 -0.000000 -0.000000
LeftFoot -47.484295 12.945335 -13.261695
LeftToeBase 28.800735 -0.000000 -0.000000
RightUpLeg -19.350705 -38.745424 -30.369874
RightLeg -4.950163 -0.000000 0.000000
RightFoot 3.691005 -23.428986 20.265792
RightToeBase 31.733421 -0.000000 -0.000000
614
root 12.787241 29.599164 -17.387286 -163.916856 1.976506 -188.773349
Spine 4.549775 2.181041 -7.974911
Head -12.267979 -4.307980 2.103699
LeftShoulder -6.665763 -24.032551 -2.419813
LeftArm -18.826764 40.437912 -80.748256
LeftForeArm 40.020707 -0.000000 57.137456
LeftHand -0.840856 0.000000 -7.565267
LeftHandThumb1 -26.253704 0.000000 33.147579
RightShoulder -3.187635 -11.249491 4.267080
RightArm 16.391944 -28.072710 61.840039
RightForeArm -30.027994 -0.000000 33.554601
RightHand 1.979307 -0.000000 9.587107
RightHandThumb1 -24.326973 -0.000000 -32.862282
LeftUpLeg -51.291426 18.881399 -13.171037
LeftLeg 64.518911 -0.000000 -0.000000
LeftFoot -47.849039 13.159082 -13.200769
LeftToeBase 28.924333 -0.000000 -0.000000
RightUpLeg -19.578571 -38.817416 -30.784155
RightLeg -4.906193 -0.000000 0.000000
RightFoot 3.772910 -23.352945 20.334074
RightToeBase 31.737029 -0.000000 -0.000000
615
root 12.656450 29.507625 -17.354491 -163.794662 2.082527 -188.960825
Spine 4.662010 2.234132 -8.109002
Head -12.352470 -4.337363 1.922412
LeftShoulder -6.596719 -24.106281 -2.461667
LeftArm -18.793450 40.599923 -80.599398
LeftForeArm 40.286235 -0.000000 57.568595
LeftHand -0.838429 -0.000000 -7.769376
LeftHandThumb1 -26.253704 0.000000 33.147579
RightShoulder -3.159522 -11.250779 4.225477
RightArm 16.417215 -28.118476 61.711521
RightForeArm -30.018431 -0.000000 33.688619
RightHand 2.022735 0.000000 9.410489
RightHandThumb1 -24.326973 -0.000000 -32.862282
LeftUpLeg -51.742359 18.725990 -13.648013
LeftLeg 65.060380 -0.000000 -0.000000
LeftFoot -48.123717 13.260085 -13.244984
LeftToeBase 28.627761 -0.000000 -0.000000
RightUpLeg -19.785314 -38.854924 -31.158517
RightLeg -4.868269 -0.000000 0.000000
RightFoot 3.840047 -23.315763 20.332718
RightToeBase 31.828190 -0.000000 -0.000000
616
root 12.521785 29.420685 -17.315734 -163.616882 2.331512 -189.229771
Spine 4.700814 2.392434 -8.418339
Head -12.475294 -4.356788 1.839384
LeftShoulder -6.603829 -24.145845 -2.411213
LeftArm -18.648633 40.841438 -80.465468
LeftForeArm 40.302026 -0.000000 57.868188
LeftHand -0.858192 -0.000000 -7.688420
LeftHandThumb1 -26.253704 0.000000 33.147579
RightShoulder -3.145055 -11.210390 4.214452
RightArm 16.399318 -28.109009 61.644318
RightForeArm -30.040211 0.000000 33.845090
RightHand 2.011154 -0.000000 9.398111
RightHandThumb1 -24.326973 -0.000000 -32.862282
LeftUpLeg -52.237707 18.629471 -14.262413
LeftLeg 65.530327 -0.000000 -0.000000
LeftFoot -48.457897 13.458271 -13.266395
LeftToeBase 28.715729 -0.000000 -0.000000
RightUpLeg -20.200008 -38.797930 -31.562838
RightLeg -4.760935 -0.000000 0.000000
RightFoot 3.932039 -23.357865 20.543665
RightToeBase 31.476485 -0.000000 -0.000000
617
root 12.390456 29.335212 -17.277989 -163.410182 2.540897 -189.502388
Spine 4.671508 2.519300 -8.725430
Head -12.491230 -4.339530 1.762682
LeftShoulder -6.493463 -24.190162 -2.378119
LeftArm -18.605095 40.849666 -80.363590
LeftForeArm 40.446320 0.000000 58.176233
LeftHand -0.816123 -0.000000 -7.804357
LeftHandThumb1 -26.253704 0.000000 33.147579
RightShoulder -3.134526 -11.300052 4.217746
RightArm 16.507060 -28.096327 61.516756
RightForeArm -30.160827 -0.000000 33.894396
RightHand 2.207562 -0.000000 9.160672
RightHandThumb1 -24.326973 -0.000000 -32.862282
LeftUpLeg -52.736073 18.470554 -14.858671
LeftLeg 65.975351 -0.000000 -0.000000
LeftFoot -48.745107 13.636626 -13.262049
LeftToeBase 28.621477 -0.000000 -0.000000
RightUpLeg -20.613603 -38.797326 -31.946033
RightLeg -4.654550 -0.000000 0.000000
RightFoot 3.976103 -23.341520 20.376165
RightToeBase 31.750724 -0.000000 -0.000000
618
root 12.266819 29.250653 -17.247510 -163.286826 2.683225 -189.713005
Spine 4.772112 2.641544 -8.922167
Head -12.605534 -4.431686 1.661819
LeftShoulder -6.419200 -24.281991 -2.397753
LeftArm -18.518679 40.972837 -80.211970
LeftForeArm 40.598658 -0.000000 58.497154
LeftHand -0.631584 -0.000000 -7.965445
LeftHandThumb1 -26.253704 0.000000 33.147579
RightShoulder -3.141908 -11.302227 4.233750
RightArm 16.526830 -28.067652 61.410338
RightForeArm -30.208680 0.000000 34.040944
RightHand 2.169665 0.000000 9.099720
RightHandThumb1 -24.326973 -0.000000 -32.862282
LeftUpLeg -53.147140 18.305312 -15.339614
LeftLeg 66.444787 -0.000000 -0.000000
LeftFoot -49.023515 13.772748 -13.295450
LeftToeBase 28.552182 -0.000000 -0.000000
RightUpLeg -20.881654 -38.857152 -32.288276
RightLeg -4.604788 -0.000000 0.000000
RightFoot 4.082526 -23.321175 20.310432
RightToeBase 31.784511 -0.000000 -0.000000
619
root 12.150527 29.167069 -17.217686 -163.178513 2.736797 -189.876142
Spine 4.882434 2.666780 -9.029806
Head -12.656410 -4.466467 1.519325
LeftShoulder -6.346901 -24.357807 -2.426463
LeftArm -18.435889 41.172967 -80.101142
LeftForeArm 40.531627 -0.000000 58.754508
LeftHand -0.730306 -0.000000 -7.866002
LeftHandThumb1 -26.253704 0.000000 33.147579
RightShoulder -3.074354 -11.217451 4.177574
RightArm 16.438511 -28.018138 61.412958
RightForeArm -30.197489 -0.000000 34.093926
RightHand 2.374053 -0.000000 8.963871
RightHandThumb1 -24.326973 -0.000000 -32.862282
LeftUpLeg -53.532373 18.061397 -15.718769
LeftLeg 66.920597 -0.000000 -0.000000
LeftFoot -49.301684 13.903529 -13.332927
LeftToeBase 28.482564 -0.000000 -0.000000
RightUpLeg -21.034412 -38.950178 -32.601736
RightLeg -4.608433 -0.000000 0.000000
RightFoot 4.179592 -23.329313 20.209870
RightToeBase 31.487383 -0.000000 -0.000000
620
root 12.039386 29.086923 -17.190373 -163.058285 2.847411 -190.019544
Spine 4.973625 2.790569 -9.149748
Head -12.745358 -4.525663 1.412209
LeftShoulder -6.267386 -24.387157 -2.474861
LeftArm -18.249965 41.319093 -79.889239
LeftForeArm 40.777880 -0.000000 59.038709
LeftHand -0.574958 0.000000 -8.001119
LeftHandThumb1 -26.253704 0.000000 33.147579
RightShoulder -3.070031 -11.198576 4.178894
RightArm 16.447225 -28.001100 61.336864
RightForeArm -30.256478 -0.000000 34.150420
RightHand 2.356556 -0.000000 8.697760
RightHandThumb1 -24.326973 -0.000000 -32.862282
LeftUpLeg -53.926872 17.888154 -16.099352
LeftLeg 67.378569 -0.000000 -0.000000
LeftFoot -49.554765 14.029409 -13.367977
LeftToeBase 28.347912 -0.000000 -0.000000
RightUpLeg -21.270281 -39.056427 -32.831292
RightLeg -4.616936 -0.000000 0.000000
RightFoot 4.312538 -23.283976 20.122824
RightToeBase 31.850069 -0.000000 -0.000000
